<?xml version="1.0" encoding="UTF-8" standalone="no"?>
<svg
   version="1.1"
   id="Layer_1"
   x="0px"
   y="0px"
   width="52.608459"
   viewBox="0 0 52.60846 52.60846"
   enable-background="new 0 0 1176 1100"
   xml:space="preserve"
   sodipodi:docname="charity-log-smaller.svg"
   inkscape:version="1.2.2 (b0a8486, 2022-12-01)"
   height="52.608459"
   xmlns:inkscape="http://www.inkscape.org/namespaces/inkscape"
   xmlns:sodipodi="http://sodipodi.sourceforge.net/DTD/sodipodi-0.dtd"
   xmlns="http://www.w3.org/2000/svg"
   xmlns:svg="http://www.w3.org/2000/svg"><defs
   id="defs253" /><sodipodi:namedview
   id="namedview251"
   pagecolor="#ffffff"
   bordercolor="#000000"
   borderopacity="0.25"
   inkscape:showpageshadow="2"
   inkscape:pageopacity="0.0"
   inkscape:pagecheckerboard="0"
   inkscape:deskcolor="#d1d1d1"
   showgrid="false"
   inkscape:zoom="1"
   inkscape:cx="147"
   inkscape:cy="143.5"
   inkscape:window-width="1440"
   inkscape:window-height="847"
   inkscape:window-x="0"
   inkscape:window-y="25"
   inkscape:window-maximized="0"
   inkscape:current-layer="Layer_1" />


<circle
   style="fill:#000000;stroke-width:0.0776153"
   id="path636"
   cx="26.30423"
   cy="26.30423"
   r="26.30423" /><path
   fill="#fef954"
   opacity="1"
   stroke="none"
   d="M 14.445248,41.609293 C 12.534823,40.232213 10.770147,38.712116 9.1997191,36.975434 7.2798011,34.852271 5.8205697,32.449302 4.8808451,29.740383 4.4792113,28.582592 4.2089498,27.393079 4.0431522,26.177279 3.9012929,25.137058 3.8447356,24.094377 3.9250617,23.049953 c 0.1276094,-1.659216 0.5033602,-3.259901 1.2009208,-4.779649 0.8603717,-1.874453 2.0943878,-3.466048 3.6680682,-4.785728 1.7659803,-1.48094 3.7833423,-2.467896 6.0419483,-2.958658 1.40208,-0.304653 2.815767,-0.406293 4.240209,-0.252274 1.280637,0.13847 2.528785,0.407334 3.691426,1.006829 0.374163,0.192931 0.793903,0.310886 1.205001,0.414843 0.380375,0.09619 0.71448,-0.0955 1.007603,-0.31373 0.523692,-0.389888 1.013741,-0.826211 1.546881,-1.201934 1.592554,-1.1223298 3.35982,-1.8423906 5.268826,-2.2200418 1.20176,-0.2377396 2.41661,-0.3308459 3.637416,-0.2570519 2.78774,0.1685102 5.3628,0.9748399 7.594574,2.6960947 1.871769,1.443608 3.131642,3.321309 3.70026,5.622879 0.214462,0.868043 0.331593,1.763097 0.447661,2.651773 0.165059,1.263802 0.141705,2.536815 0.08967,3.807514 -0.126868,3.098174 -0.832045,6.040976 -2.304692,8.792625 -1.34373,2.510777 -3.040116,4.750853 -5.007398,6.800357 -1.226541,1.277806 -2.604034,2.381621 -3.949398,3.523609 -0.287908,0.244384 -0.57934,0.484678 -0.871917,0.723461 -0.06834,0.05577 -0.147969,0.09771 -0.222399,0.146018 -0.01151,-0.01338 -0.02304,-0.02677 -0.03455,-0.04015 0.194086,-0.242601 0.390789,-0.483156 0.581844,-0.728114 1.451511,-1.861034 2.918809,-3.710086 4.347321,-5.588622 1.146831,-1.508123 1.984859,-3.192412 2.642124,-4.965011 0.622428,-1.678643 1.059916,-3.404972 1.302798,-5.181134 0.212191,-1.551701 0.316004,-3.108943 0.2059,-4.671242 -0.108271,-1.536357 -0.400342,-3.036743 -1.08361,-4.435951 -1.017093,-2.082835 -2.684238,-3.33661 -4.938818,-3.800227 -1.501163,-0.308691 -2.992286,-0.189421 -4.458302,0.24613 -1.779061,0.528552 -3.353736,1.425014 -4.702489,2.69581 -0.925695,0.872182 -1.654408,1.903367 -2.277705,3.011898 -0.157643,0.280363 -0.372249,0.529751 -0.570543,0.78573 -0.09153,0.11815 -0.206615,0.116596 -0.313657,0.004 -0.234533,-0.246685 -0.488295,-0.47766 -0.701812,-0.741289 -0.713867,-0.881418 -1.604198,-1.531592 -2.61677,-2.018995 -1.822374,-0.877204 -3.745928,-1.163966 -5.729697,-0.806626 -2.478004,0.446364 -4.450886,1.688788 -5.691992,3.937321 -0.511196,0.926142 -0.767845,1.94593 -0.853857,2.997042 -0.2616411,3.197491 0.574081,6.142013 2.104965,8.918344 1.009586,1.830929 2.29358,3.457019 3.719686,4.978674 2.71474,2.896618 5.728553,5.447636 9.022436,7.651753 1.766211,1.181873 3.630853,2.216835 5.453677,3.313767 0.472952,0.284617 0.955832,0.552703 1.433711,0.829153 0.0542,0.03136 0.105499,0.06776 0.143739,0.131609 -6.325766,-1.242694 -12.227995,-3.484976 -17.448872,-7.381471 z"
   id="path248"
   inkscape:label="path248"
   style="stroke-width:0.0436032" /></svg>
