<?xml version="1.0" standalone="no"?>
<!DOCTYPE svg PUBLIC "-//W3C//DTD SVG 20010904//EN"
 "http://www.w3.org/TR/2001/REC-SVG-20010904/DTD/svg10.dtd">
<svg version="1.0" xmlns="http://www.w3.org/2000/svg"
 width="1176.000000pt" height="1176.000000pt" viewBox="0 0 1176.000000 1176.000000"
 preserveAspectRatio="xMidYMid meet">
<metadata>
Created by potrace 1.14, written by Peter Selinger 2001-2017
</metadata>
<g transform="translate(0.000000,1176.000000) scale(0.100000,-0.100000)"
fill="#000000" stroke="none">
<path d="M5777 11323 c-1 -1 -64 -4 -139 -8 -75 -3 -145 -7 -155 -9 -10 -2
-54 -7 -98 -11 -141 -12 -327 -39 -461 -66 -28 -5 -64 -12 -80 -15 -16 -3 -58
-12 -94 -20 -36 -9 -72 -17 -80 -19 -8 -2 -33 -8 -55 -14 -22 -5 -59 -15 -83
-21 -23 -5 -82 -22 -130 -36 -48 -14 -91 -27 -97 -28 -5 -2 -17 -5 -25 -9 -8
-3 -64 -22 -125 -42 -858 -289 -1699 -852 -2300 -1540 -38 -44 -72 -82 -75
-85 -3 -3 -24 -27 -45 -55 -22 -27 -43 -52 -46 -55 -11 -9 -155 -204 -217
-292 -174 -249 -365 -583 -480 -838 -58 -129 -77 -175 -119 -280 -143 -364
-245 -740 -308 -1130 -2 -14 -6 -38 -9 -55 -11 -70 -22 -152 -31 -245 -3 -36
-8 -83 -10 -105 -8 -79 -18 -332 -18 -450 0 -120 12 -419 18 -459 2 -11 6 -52
10 -91 3 -38 10 -101 16 -140 5 -38 12 -88 15 -110 8 -63 14 -96 24 -150 5
-27 12 -61 14 -75 93 -515 309 -1112 577 -1595 101 -183 316 -525 349 -555 3
-3 32 -41 64 -85 50 -68 112 -144 211 -264 128 -153 321 -350 531 -542 32 -29
231 -194 294 -242 386 -302 901 -588 1390 -773 285 -108 747 -235 985 -269 22
-4 51 -8 65 -11 28 -5 63 -10 130 -19 25 -3 56 -8 70 -10 14 -2 59 -6 100 -10
41 -4 91 -9 110 -11 91 -10 281 -17 435 -18 163 0 460 10 501 18 10 2 53 7 94
11 41 4 82 9 91 10 9 2 40 6 70 10 30 3 79 10 109 15 30 5 70 12 88 15 82 13
99 16 132 25 19 5 53 12 75 16 75 11 380 93 525 139 333 108 813 319 1021 451
21 13 41 24 43 24 10 0 259 159 360 229 59 42 118 83 130 91 53 36 311 246
400 325 159 143 367 354 486 495 30 36 57 67 60 70 19 17 141 173 215 275 338
463 584 939 768 1485 49 143 119 386 133 459 3 12 12 53 20 90 9 36 18 77 20
91 3 14 11 57 19 95 7 39 16 93 20 120 3 28 8 57 10 65 4 16 21 148 30 235 3
28 7 66 10 85 24 188 24 725 0 965 -7 66 -35 302 -41 340 -15 99 -69 368 -95
470 -17 66 -32 128 -34 137 -21 100 -160 508 -220 643 -8 17 -26 59 -41 95
-82 200 -256 527 -407 765 -112 176 -362 510 -468 626 -13 14 -39 43 -58 65
-61 71 -245 257 -356 361 -642 596 -1435 1034 -2289 1263 -65 17 -146 38 -180
45 -154 33 -203 44 -231 48 -16 3 -57 10 -90 16 -89 16 -114 19 -180 26 -33 4
-67 8 -75 10 -8 2 -51 7 -95 11 -44 4 -93 8 -110 10 -93 10 -582 24 -588 17z"/>
</g>
</svg>
