<?xml version="1.0" encoding="UTF-8" standalone="no"?>
<svg
   version="1.1"
   id="Layer_1"
   x="0px"
   y="0px"
   width="100%"
   viewBox="0 0 1176 1100"
   enable-background="new 0 0 1176 1100"
   xml:space="preserve"
   sodipodi:docname="charity-log-small.svg"
   inkscape:version="1.2.2 (b0a8486, 2022-12-01)"
   xmlns:inkscape="http://www.inkscape.org/namespaces/inkscape"
   xmlns:sodipodi="http://sodipodi.sourceforge.net/DTD/sodipodi-0.dtd"
   xmlns="http://www.w3.org/2000/svg"
   xmlns:svg="http://www.w3.org/2000/svg"><defs
   id="defs253" /><sodipodi:namedview
   id="namedview251"
   pagecolor="#ffffff"
   bordercolor="#000000"
   borderopacity="0.25"
   inkscape:showpageshadow="2"
   inkscape:pageopacity="0.0"
   inkscape:pagecheckerboard="0"
   inkscape:deskcolor="#d1d1d1"
   showgrid="false"
   inkscape:zoom="0.27441351"
   inkscape:cx="129.36681"
   inkscape:cy="679.63127"
   inkscape:window-width="1342"
   inkscape:window-height="847"
   inkscape:window-x="0"
   inkscape:window-y="25"
   inkscape:window-maximized="0"
   inkscape:current-layer="Layer_1" />


<circle
   style="fill:#000000;stroke-width:1.60215"
   id="path636"
   cx="592.6203"
   cy="548.6203"
   r="542.9762" /><path
   fill="#fef954"
   opacity="1"
   stroke="none"
   d="m 347.82526,864.54993 c -39.43529,-28.42596 -75.86203,-59.804 -108.27906,-95.65285 -39.63126,-43.82673 -69.75295,-93.42916 -89.1509,-149.34714 -8.29059,-23.89932 -13.86937,-48.45346 -17.29179,-73.55018 -2.92828,-21.47242 -4.09575,-42.99561 -2.43764,-64.55478 2.63413,-34.24979 10.39044,-67.29142 24.7896,-98.66228 17.75993,-38.69277 43.23269,-71.54674 75.71686,-98.78777 36.45366,-30.56981 78.09637,-50.94272 124.71888,-61.07312 28.94197,-6.28869 58.12353,-8.38675 87.52707,-5.20748 26.43512,2.85833 52.19959,8.40826 76.19902,20.78314 7.72355,3.98251 16.38787,6.41735 24.87385,8.56324 7.85173,1.98553 14.7484,-1.97133 20.79909,-6.47605 10.81015,-8.04814 20.92581,-17.05479 31.931,-24.81052 32.87373,-23.16732 69.35395,-38.03093 108.75998,-45.82647 24.8069,-4.90746 49.88399,-6.82937 75.08411,-5.30611 57.54499,3.47842 110.69981,20.12281 156.76842,55.65324 38.63737,29.79919 64.64385,68.55899 76.38135,116.06837 4.427,17.91828 6.8448,36.39414 9.2407,54.73833 3.4072,26.08764 2.9251,52.36537 1.8509,78.59534 -2.6188,63.95302 -17.1752,124.6988 -47.57378,181.49879 -27.7375,51.82784 -62.75464,98.06789 -103.36354,140.37405 -25.31848,26.3767 -53.7529,49.16186 -81.52416,72.73492 -5.94304,5.04464 -11.95881,10.0048 -17.99826,14.93384 -1.41057,1.15128 -3.05438,2.01696 -4.59078,3.01414 -0.23771,-0.27631 -0.47541,-0.55256 -0.71312,-0.82878 4.00637,-5.00778 8.06675,-9.97336 12.01056,-15.02983 29.9623,-38.41574 60.25048,-76.58416 89.73809,-115.36124 23.67307,-31.1309 40.97179,-65.89825 54.53912,-102.48858 12.84826,-34.65083 21.87898,-70.28598 26.89261,-106.94979 4.38008,-32.03048 6.52295,-64.17532 4.2502,-96.42455 -2.23495,-31.71374 -8.26396,-62.68493 -22.36807,-91.56762 -20.99494,-42.99423 -55.40849,-68.87485 -101.94784,-78.4449 -30.98727,-6.37205 -61.76728,-3.91006 -92.02902,5.08065 -36.72367,10.91046 -69.22838,29.41538 -97.06956,55.64735 -19.10832,18.00372 -34.15057,39.28961 -47.01674,62.17208 -3.2541,5.78732 -7.68404,10.93523 -11.77726,16.21917 -1.88934,2.43887 -4.26497,2.40678 -6.47454,0.0827 -4.84127,-5.09214 -10.07949,-9.85996 -14.48692,-15.30182 -14.73578,-18.19439 -33.11413,-31.61537 -54.01582,-41.67644 -37.61771,-18.10738 -77.32403,-24.02678 -118.27332,-16.65051 -51.15137,9.21394 -91.87592,34.86026 -117.49503,81.27483 -10.5522,19.11759 -15.84998,40.1682 -17.62546,61.86543 -5.40083,66.00313 11.85028,126.78442 43.45104,184.09391 20.84004,37.79434 47.34445,71.3604 76.78237,102.77058 56.03808,59.79246 118.24973,112.451 186.24258,157.94877 36.45843,24.39639 74.94866,45.76026 112.57572,68.40333 9.76275,5.87508 19.73044,11.40898 29.59488,17.11548 1.11887,0.6474 2.17772,1.3987 2.96708,2.7167 C 577.43024,991.26762 455.59545,944.98204 347.82526,864.54995 Z"
   id="path248"
   inkscape:label="path248"
   style="stroke-width:0.900066" /></svg>
