<?xml version="1.0" encoding="UTF-8" standalone="no"?>
<svg
   version="1.1"
   id="Layer_1"
   x="0px"
   y="0px"
   width="100%"
   viewBox="0 0 1176 1100"
   enable-background="new 0 0 1176 1100"
   xml:space="preserve"
   sodipodi:docname="charity-logo.svg"
   inkscape:version="1.4.1-rc (06eac75fbf, 2025-03-29)"
   xmlns:inkscape="http://www.inkscape.org/namespaces/inkscape"
   xmlns:sodipodi="http://sodipodi.sourceforge.net/DTD/sodipodi-0.dtd"
   xmlns="http://www.w3.org/2000/svg"
   xmlns:svg="http://www.w3.org/2000/svg"><defs
   id="defs2" /><sodipodi:namedview
   id="namedview2"
   pagecolor="#ffffff"
   bordercolor="#000000"
   borderopacity="0.25"
   inkscape:showpageshadow="2"
   inkscape:pageopacity="0.0"
   inkscape:pagecheckerboard="0"
   inkscape:deskcolor="#d1d1d1"
   inkscape:zoom="0.74829932"
   inkscape:cx="588"
   inkscape:cy="549.91364"
   inkscape:window-width="3840"
   inkscape:window-height="1531"
   inkscape:window-x="0"
   inkscape:window-y="32"
   inkscape:window-maximized="1"
   inkscape:current-layer="Layer_1" />
<path
   fill="#000000"
   opacity="1.000000"
   stroke="none"
   d=" M704.000000,1101.000000   C469.333344,1101.000000 235.166672,1101.000000 1.000000,1101.000000   C1.000000,734.333313 1.000000,367.666656 1.000000,1.000000   C393.000000,1.000000 785.000000,1.000000 1177.000000,1.000000   C1177.000000,367.666656 1177.000000,734.333313 1177.000000,1101.000000   C1019.500000,1101.000000 862.000000,1101.000000 704.000000,1101.000000  M317.644196,846.840942   C437.094543,935.987305 572.456665,987.412048 717.532166,1015.912048   C716.655212,1014.447632 715.478821,1013.612915 714.235657,1012.893677   C703.276001,1006.553528 692.201538,1000.405090 681.354858,993.877808   C639.550110,968.720703 596.786255,944.984802 556.279907,917.879761   C480.737793,867.330322 411.618774,808.825134 349.358795,742.393921   C316.652374,707.496277 287.205200,670.203369 264.051300,628.212708   C228.941895,564.540161 209.775330,497.010315 215.775894,423.678864   C217.748444,399.572601 223.634506,376.184723 235.358292,354.944519   C263.821838,303.376556 309.068054,274.882721 365.898773,264.645752   C411.394684,256.450500 455.509552,263.027130 497.304016,283.144958   C520.526367,294.323120 540.945312,309.234222 557.317200,329.448730   C562.213928,335.494812 568.033752,340.791992 573.412598,346.449524   C575.867493,349.031647 578.506836,349.067291 580.605957,346.357635   C585.153687,340.487030 590.075500,334.767548 593.690857,328.337646   C607.985596,302.914551 624.697998,279.265289 645.927856,259.262604   C676.860291,230.118103 712.973999,209.558578 753.775024,197.436737   C787.396790,187.447784 821.594238,184.712448 856.022095,191.791977   C907.728699,202.424591 945.963135,231.178741 969.289185,278.946625   C984.959229,311.036163 991.657654,345.446075 994.140808,380.681000   C996.665833,416.510864 994.285034,452.224731 989.418640,487.811554   C983.848328,528.546143 973.815002,568.137878 959.540222,606.635986   C944.466431,647.288940 925.247070,685.916504 898.945557,720.503845   C866.184021,763.586365 832.532898,805.992615 799.243896,848.673645   C794.862183,854.291565 790.351013,859.808472 785.899780,865.372192   C786.163879,865.679138 786.427979,865.986084 786.692078,866.293030   C788.399109,865.185181 790.225403,864.223328 791.792603,862.944275   C798.502563,857.467957 805.186279,851.957031 811.789185,846.352295   C842.643921,820.161926 874.235352,794.846924 902.364929,765.541626   C947.482666,718.538208 986.387817,667.164124 1017.205017,609.581848   C1050.978760,546.475342 1067.151245,478.984985 1070.060791,407.931244   C1071.254272,378.788971 1071.789917,349.593628 1068.004517,320.609467   C1065.342529,300.228516 1062.656250,279.701294 1057.737793,259.793549   C1044.697021,207.009201 1015.803040,163.945908 972.875732,130.838120   C921.692139,91.362732 862.635559,72.870316 798.701355,69.005699   C770.703308,67.313316 742.841858,69.448601 715.280640,74.900932   C671.499329,83.562019 630.968750,100.075935 594.445068,125.815514   C582.218018,134.432373 570.979187,144.439026 558.968750,153.380753   C552.246277,158.385635 544.583923,162.781815 535.860413,160.575836   C526.432190,158.191681 516.805847,155.486511 508.224823,151.061829   C481.560669,137.312943 452.935547,131.146820 423.565338,127.971138   C390.897125,124.438866 358.475586,126.769890 326.320190,133.756805   C274.521210,145.011978 228.254913,167.646896 187.753769,201.610870   C151.662872,231.876465 123.361900,268.378204 103.630112,311.367035   C87.632172,346.221008 79.014641,382.931244 76.088066,420.983795   C74.245872,444.936676 75.543015,468.849579 78.796341,492.706085   C82.598793,520.589294 88.796928,547.869690 98.008087,574.422546   C119.559731,636.549072 153.025879,691.658875 197.057358,740.351685   C233.073639,780.180847 273.544922,815.042786 317.644196,846.840942  z"
   id="path1" />
<path
   fill="#FEF954"
   opacity="1.000000"
   stroke="none"
   d=" M317.358704,846.624878   C273.544922,815.042786 233.073639,780.180847 197.057358,740.351685   C153.025879,691.658875 119.559731,636.549072 98.008087,574.422546   C88.796928,547.869690 82.598793,520.589294 78.796341,492.706085   C75.543015,468.849579 74.245872,444.936676 76.088066,420.983795   C79.014641,382.931244 87.632172,346.221008 103.630112,311.367035   C123.361900,268.378204 151.662872,231.876465 187.753769,201.610870   C228.254913,167.646896 274.521210,145.011978 326.320190,133.756805   C358.475586,126.769890 390.897125,124.438866 423.565338,127.971138   C452.935547,131.146820 481.560669,137.312943 508.224823,151.061829   C516.805847,155.486511 526.432190,158.191681 535.860413,160.575836   C544.583923,162.781815 552.246277,158.385635 558.968750,153.380753   C570.979187,144.439026 582.218018,134.432373 594.445068,125.815514   C630.968750,100.075935 671.499329,83.562019 715.280640,74.900932   C742.841858,69.448601 770.703308,67.313316 798.701355,69.005699   C862.635559,72.870316 921.692139,91.362732 972.875732,130.838120   C1015.803040,163.945908 1044.697021,207.009201 1057.737793,259.793549   C1062.656250,279.701294 1065.342529,300.228516 1068.004517,320.609467   C1071.789917,349.593628 1071.254272,378.788971 1070.060791,407.931244   C1067.151245,478.984985 1050.978760,546.475342 1017.205017,609.581848   C986.387817,667.164124 947.482666,718.538208 902.364929,765.541626   C874.235352,794.846924 842.643921,820.161926 811.789185,846.352295   C805.186279,851.957031 798.502563,857.467957 791.792603,862.944275   C790.225403,864.223328 788.399109,865.185181 786.692078,866.293030   C786.427979,865.986084 786.163879,865.679138 785.899780,865.372192   C790.351013,859.808472 794.862183,854.291565 799.243896,848.673645   C832.532898,805.992615 866.184021,763.586365 898.945557,720.503845   C925.247070,685.916504 944.466431,647.288940 959.540222,606.635986   C973.815002,568.137878 983.848328,528.546143 989.418640,487.811554   C994.285034,452.224731 996.665833,416.510864 994.140808,380.681000   C991.657654,345.446075 984.959229,311.036163 969.289185,278.946625   C945.963135,231.178741 907.728699,202.424591 856.022095,191.791977   C821.594238,184.712448 787.396790,187.447784 753.775024,197.436737   C712.973999,209.558578 676.860291,230.118103 645.927856,259.262604   C624.697998,279.265289 607.985596,302.914551 593.690857,328.337646   C590.075500,334.767548 585.153687,340.487030 580.605957,346.357635   C578.506836,349.067291 575.867493,349.031647 573.412598,346.449524   C568.033752,340.791992 562.213928,335.494812 557.317200,329.448730   C540.945312,309.234222 520.526367,294.323120 497.304016,283.144958   C455.509552,263.027130 411.394684,256.450500 365.898773,264.645752   C309.068054,274.882721 263.821838,303.376556 235.358292,354.944519   C223.634506,376.184723 217.748444,399.572601 215.775894,423.678864   C209.775330,497.010315 228.941895,564.540161 264.051300,628.212708   C287.205200,670.203369 316.652374,707.496277 349.358795,742.393921   C411.618774,808.825134 480.737793,867.330322 556.279907,917.879761   C596.786255,944.984802 639.550110,968.720703 681.354858,993.877808   C692.201538,1000.405090 703.276001,1006.553528 714.235657,1012.893677   C715.478821,1013.612915 716.655212,1014.447632 717.532166,1015.912048   C572.456665,987.412048 437.094543,935.987305 317.358704,846.624878  z"
   id="path2"
   style="fill:#ffd736;fill-opacity:1" />
</svg>
